<?xml version="1.0" encoding="UTF-8"?>
<svg width="547" height="177" version="1.1" viewBox="0 0 512.812 165.938" xmlns="http://www.w3.org/2000/svg"><defs><marker id="TriangleOutS" overflow="visible" orient="auto"><path transform="scale(.2)" d="m5.77 0-8.65 5v-10z" fill="#858585" fill-rule="evenodd" stroke="#858585" stroke-width="1pt"/></marker><marker id="a" overflow="visible" orient="auto"><path transform="scale(.2)" d="m5.77 0-8.65 5v-10z" fill="#858585" fill-rule="evenodd" stroke="#858585" stroke-width="1pt"/></marker></defs><g transform="translate(-30.3859 -4.25408)"><path d="m178.716 87.2229 18.6551-7.9e-5" fill="#858585" fill-rule="evenodd" marker-end="url(#TriangleOutS)" stroke="#858585" stroke-width="9.06807"/><g transform="translate(0 -3.97748)" stroke-miterlimit="10"><g fill="none" stroke="#000" stroke-width="2.8125"><path d="m129.638 40.5346-13.245-4.30464"/><path d="m150.901 69.737-68.8107-22.3616"/><path d="m150.901 105.802-89.9394-29.2236"/><path d="m129.384 134.87-68.381-22.2136"/><path d="m95.0812 146.016-12.8787-4.18487"/></g><g fill="#f00" fill-opacity=".219608" stroke="#f00" stroke-width="3.75"><path d="m116.28 32.7848c0-5.79118-4.69212-10.4903-10.4904-10.4903-5.79116 0-10.4903 4.69917-10.4903 10.4903 0 5.79822 4.69917 10.4903 10.4903 10.4903 5.79824 0 10.4904-4.69212 10.4904-10.4903z"/><path d="m81.9841 43.9304c0-5.79119-4.69917-10.4903-10.4903-10.4903-5.79823 0-10.4974 4.69916-10.4974 10.4903 0 5.79822 4.69916 10.4903 10.4974 10.4903 5.79118 0 10.4903-4.69212 10.4903-10.4903z"/><path d="m60.8555 73.1117c0-5.84051-4.72735-10.5678-10.5608-10.5678-5.84051 0-10.5678 4.72734-10.5678 10.5678 0 5.83344 4.72734 10.5608 10.5678 10.5608 5.83344 0 10.5608-4.72735 10.5608-10.5608z"/></g><g fill="#11994f" fill-opacity=".219608" stroke="#11994f" stroke-width="3.75"><path d="m60.8977 109.176c0-5.86163-4.74849-10.6101-10.6031-10.6101-5.86163 0-10.6101 4.74848-10.6101 10.6101 0 5.85458 4.74849 10.6101 10.6101 10.6101 5.85457 0 10.6031-4.75554 10.6031-10.6101z"/><path d="m82.0968 138.358c0-5.86163-4.7485-10.6101-10.6031-10.6101-5.86163 0-10.6101 4.74847-10.6101 10.6101 0 5.85459 4.74849 10.6031 10.6101 10.6031 5.85457 0 10.6031-4.74847 10.6031-10.6031z"/><path d="m116.4 149.496c0-5.85459-4.74851-10.6031-10.6101-10.6031-5.85458 0-10.6031 4.74847-10.6031 10.6031 0 5.86163 4.74848 10.6101 10.6031 10.6101 5.86162 0 10.6101-4.74848 10.6101-10.6101z"/><path d="m150.696 138.358c0-5.86163-4.74847-10.6101-10.6031-10.6101-5.86163 0-10.6101 4.74847-10.6101 10.6101 0 5.85459 4.74849 10.6031 10.6101 10.6031 5.85459 0 10.6031-4.74847 10.6031-10.6031z"/></g><g fill="#00f" fill-opacity=".219608" stroke="#00f" stroke-width="3.75"><path d="m171.564 109.176c0-5.67141-4.60053-10.2719-10.2719-10.2719s-10.2649 4.60054-10.2649 10.2719 4.59349 10.2649 10.2649 10.2649 10.2719-4.59349 10.2719-10.2649z"/><path d="m171.564 73.1117c0-5.67142-4.60053-10.272-10.2719-10.272s-10.2649 4.60054-10.2649 10.272c0 5.6714 4.59349 10.2649 10.2649 10.2649s10.2719-4.59348 10.2719-10.2649z"/><path d="m150.436 43.9304c0-5.70664-4.62872-10.3424-10.3424-10.3424-5.71367 0-10.3424 4.63576-10.3424 10.3424 0 5.71368 4.62873 10.3424 10.3424 10.3424 5.71368 0 10.3424-4.6287 10.3424-10.3424z"/></g></g><g transform="translate(16.028 -8.14657)" stroke-miterlimit="10"><g fill="none" stroke="#000" stroke-width="2.8125"><path d="m297.318 41.329-14.1257-4.58644"/><path d="m320.003 72.4759-73.3972-23.8481"/><path d="m320.003 110.943-95.9278-31.1681"/><path d="m297.05 141.949-72.9322-23.6931"/><path d="m260.464 153.841-13.7382-4.46667"/><path d="m219.764 124.279 8.46133 11.6528"/><path d="m283.312 153.841 13.7382-4.46667"/><path d="m331.085 102.911v-15.2036"/><path d="m327.485 103.461-15.3868-47.351"/><path d="m324.223 66.6354-8.8488-12.1812"/></g><g fill="#f00" fill-opacity=".219608" stroke="#f00" stroke-width="3.75"><path d="m283.079 33.0649c0-6.17866-5.00916-11.1878-11.1949-11.1878-6.17867 0-11.1878 5.00916-11.1878 11.1878s5.00916 11.1878 11.1878 11.1878c6.18571 0 11.1949-5.00916 11.1949-11.1878z"/><path d="m246.493 44.9502c0-6.17867-5.00916-11.1878-11.1949-11.1878-6.17866 0-11.1878 5.00916-11.1878 11.1878 0 6.18571 5.00915 11.1949 11.1878 11.1949 6.18571 0 11.1949-5.00916 11.1949-11.1949z"/><path d="m223.956 76.076c0-6.22799-5.04438-11.2724-11.2653-11.2724-6.22799 0-11.2724 5.04438-11.2724 11.2724 0 6.22093 5.04437 11.2653 11.2724 11.2653 6.22093 0 11.2653-5.04438 11.2653-11.2653z"/></g><g fill="#11994f" fill-opacity=".219608" stroke="#11994f" stroke-width="3.75"><path d="m224.005 114.543c0-6.24911-5.06552-11.3146-11.3146-11.3146-6.24912 0-11.3146 5.06551-11.3146 11.3146 0 6.24913 5.06552 11.3146 11.3146 11.3146 6.24911 0 11.3146-5.06551 11.3146-11.3146z"/><path d="m246.613 145.662c0-6.24911-5.06551-11.3076-11.3146-11.3076-6.24911 0-11.3076 5.05847-11.3076 11.3076 0 6.24913 5.05847 11.3146 11.3076 11.3146 6.24913 0 11.3146-5.06551 11.3146-11.3146z"/><path d="m283.199 157.554c0-6.24911-5.06551-11.3146-11.3146-11.3146-6.24913 0-11.3146 5.06552-11.3146 11.3146 0 6.24913 5.06551 11.3076 11.3146 11.3076 6.24911 0 11.3146-5.05847 11.3146-11.3076z"/><path d="m319.785 145.662c0-6.24911-5.06552-11.3076-11.3146-11.3076-6.24911 0-11.3146 5.05847-11.3146 11.3076 0 6.24913 5.06552 11.3146 11.3146 11.3146 6.24912 0 11.3146-5.06551 11.3146-11.3146z"/></g><g fill="#00f" fill-opacity=".219608" stroke="#00f" stroke-width="3.75"><path d="m342.034 114.543c0-6.05184-4.90349-10.9553-10.9483-10.9553-6.05184 0-10.9553 4.90348-10.9553 10.9553 0 6.05186 4.90348 10.9553 10.9553 10.9553 6.0448 0 10.9483-4.90348 10.9483-10.9553z"/><path d="m342.034 76.076c0-6.05186-4.90349-10.9553-10.9483-10.9553-6.05184 0-10.9553 4.90348-10.9553 10.9553 0 6.0448 4.90348 10.9483 10.9553 10.9483 6.0448 0 10.9483-4.90348 10.9483-10.9483z"/><path d="m319.503 44.9502c0-6.08708-4.9387-11.0258-11.0328-11.0258-6.08708 0-11.0258 4.93871-11.0258 11.0258 0 6.09412 4.9387 11.0328 11.0258 11.0328 6.09413 0 11.0328-4.9387 11.0328-11.0328z"/></g></g><g transform="translate(28.1738 -13.2644)" stroke-miterlimit="10"><g fill="none" stroke="#000" stroke-width="2.8125"><path d="m450.667 151.694 29.3293-16.9297"/><path d="m451.992 45.9713 30.2381 17.4581"/><path d="m400.935 69.8405h79.6181"/><path d="m399.209 124.194 83.021-47.9357"/><path d="m452.63 155.687 29.3293-16.9297"/></g><g fill="#f00" fill-opacity=".219608" stroke="#f00" stroke-width="3.75"><path d="m452.605 39.3699c0-6.65774-5.3896-12.0473-12.0473-12.0473-6.65069 0-12.0473 5.3896-12.0473 12.0473 0 6.6507 5.39664 12.0473 12.0473 12.0473 6.65774 0 12.0473-5.39664 12.0473-12.0473z"/><path d="m399.822 69.8405c0-6.6507-5.39664-12.0473-12.0473-12.0473-6.65774 0-12.0473 5.39664-12.0473 12.0473 0 6.65773 5.3896 12.0544 12.0473 12.0544 6.6507 0 12.0473-5.39665 12.0473-12.0544z"/><path d="m399.822 130.796c0-6.65774-5.39664-12.0473-12.0473-12.0473-6.65774 0-12.0473 5.3896-12.0473 12.0473 0 6.6507 5.3896 12.0473 12.0473 12.0473 6.6507 0 12.0473-5.39664 12.0473-12.0473z"/></g><g fill-opacity=".219608" stroke-width="3.75"><path d="m452.943 161.266c0-6.84092-5.54461-12.3855-12.3855-12.3855-6.84092 0-12.3855 5.54459-12.3855 12.3855 0 6.84093 5.54459 12.3855 12.3855 12.3855 6.84091 0 12.3855-5.54459 12.3855-12.3855z" fill="#11994f" stroke="#11994f"/><path d="m505.726 130.796c0-6.84091-5.54459-12.3926-12.3855-12.3926-6.84091 0-12.3855 5.55165-12.3855 12.3926 0 6.84092 5.54459 12.3855 12.3855 12.3855 6.84093 0 12.3855-5.54459 12.3855-12.3855z" fill="#11994f" stroke="#11994f"/><path d="m505.021 69.8405c0-6.44639-5.22756-11.6739-11.681-11.6739-6.44637 0-11.6739 5.22755-11.6739 11.6739 0 6.45342 5.22757 11.681 11.6739 11.681 6.45344 0 11.681-5.22756 11.681-11.681z" fill="#00f" stroke="#00f"/></g></g><path d="m365.214 87.2229 18.6551-7.8e-5" fill="#858585" fill-rule="evenodd" marker-end="url(#a)" stroke="#858585" stroke-width="9.06807"/></g></svg>
