<?xml version="1.0" encoding="UTF-8" standalone="no"?>
<svg
   xmlns:dc="http://purl.org/dc/elements/1.1/"
   xmlns:cc="http://creativecommons.org/ns#"
   xmlns:rdf="http://www.w3.org/1999/02/22-rdf-syntax-ns#"
   xmlns:svg="http://www.w3.org/2000/svg"
   xmlns="http://www.w3.org/2000/svg"
   version="1.1"
   id="svg2"
   viewBox="0 0 562.49999 375"
   height="400"
   width="600">
  <defs
     id="defs4">
    <marker
       style="overflow:visible"
       id="TriangleOutS"
       refX="0"
       refY="0"
       orient="auto">
      <path
         transform="scale(0.2)"
         style="fill:#000000;fill-opacity:1;fill-rule:evenodd;stroke:#000000;stroke-width:1.00000003pt;stroke-opacity:1"
         d="M 5.77,0 -2.88,5 V -5 Z"
         id="path6817" />
    </marker>
    <marker
       style="overflow:visible"
       id="TriangleOutS-5"
       refX="0"
       refY="0"
       orient="auto">
      <path
         transform="scale(0.2)"
         style="fill:#000000;fill-opacity:1;fill-rule:evenodd;stroke:#000000;stroke-width:1.00000003pt;stroke-opacity:1"
         d="M 5.77,0 -2.88,5 V -5 Z"
         id="path6817-3" />
    </marker>
  </defs>
  <metadata
     id="metadata7">
    <rdf:RDF>
      <cc:Work
         rdf:about="">
        <dc:format>image/svg+xml</dc:format>
        <dc:type
           rdf:resource="http://purl.org/dc/dcmitype/StillImage" />
        <dc:title></dc:title>
      </cc:Work>
    </rdf:RDF>
  </metadata>
  <g
     transform="translate(-25.504934,90.173138)"
     id="layer1">
    <g
       transform="matrix(1.4428627,0,0,1.4428627,-10.795153,-127.0767)"
       id="g4756">
      <g
         id="g5806"
         transform="translate(-48.703806,-58.63031)">
        <path
           id="path4139"
           d="m 280.73908,249.79691 c 0,-4.61426 -3.73535,-8.34961 -8.34961,-8.34961 -4.60937,0 -8.3496,3.73535 -8.3496,8.34961 0,4.60938 3.74023,8.34961 8.3496,8.34961 4.61426,0 8.34961,-3.74023 8.34961,-8.34961 z"
           style="fill:none;stroke:#ff0000;stroke-width:1.18771374;stroke-linecap:butt;stroke-linejoin:miter;stroke-miterlimit:10;stroke-opacity:1" />
        <path
           id="path4141"
           d="m 270.38752,250.29984 h 2.92969 c 1.01562,0 1.40625,0.48828 1.21094,1.60156 l -0.13672,0.80079 c -0.0977,0.54687 -0.0977,1.07421 0,1.44531 h 1.38672 l 0.0586,-0.27344 c -0.39062,-0.29297 -0.42968,-0.625 -0.2539,-1.79687 0.23437,-1.48438 0.0781,-1.91407 -0.82032,-2.32422 1.09375,-0.48828 1.58204,-1.11328 1.75782,-2.12891 0.2539,-1.54297 -0.56641,-2.38281 -2.30469,-2.38281 h -4.10156 l -1.50391,8.90625 h 1.13281 z m 0.17578,-0.99609 0.50782,-3.06641 h 2.7539 c 0.625,0 0.9961,0.0977 1.21094,0.35156 0.27344,0.25391 0.37109,0.64454 0.27344,1.19141 -0.15625,1.05469 -0.78125,1.52344 -1.99219,1.52344 z"
           style="fill:#000000;fill-opacity:1;fill-rule:nonzero;stroke:none" />
        <path
           id="path4143"
           d="m 244.15705,270.91508 c 0,-4.60938 -3.74023,-8.34961 -8.34961,-8.34961 -4.61426,0 -8.34961,3.74023 -8.34961,8.34961 0,4.61425 3.73535,8.35449 8.34961,8.35449 4.60938,0 8.34961,-3.74024 8.34961,-8.35449 z"
           style="fill:none;stroke:#ff0000;stroke-width:1.18771374;stroke-linecap:butt;stroke-linejoin:miter;stroke-miterlimit:10;stroke-opacity:1" />
        <path
           id="path4145"
           d="m 233.80549,271.42289 h 2.92969 c 1.01562,0 1.40625,0.48828 1.21094,1.60156 l -0.13672,0.80078 c -0.0977,0.54688 -0.0977,1.07422 0,1.44532 h 1.38672 l 0.0586,-0.27344 c -0.39063,-0.29297 -0.42969,-0.625 -0.25391,-1.79688 0.23438,-1.48437 0.0781,-1.91406 -0.82031,-2.32422 1.09375,-0.48828 1.58203,-1.11328 1.75781,-2.1289 0.25391,-1.54297 -0.5664,-2.38281 -2.30468,-2.38281 h -4.10157 l -1.5039,8.90625 h 1.13281 z m 0.17578,-0.99609 0.50781,-3.06641 h 2.75391 c 0.625,0 0.99609,0.0977 1.21094,0.35156 0.27344,0.25391 0.37109,0.64453 0.27344,1.19141 -0.15625,1.05469 -0.78125,1.52344 -1.99219,1.52344 z"
           style="fill:#000000;fill-opacity:1;fill-rule:nonzero;stroke:none" />
        <path
           id="path4147"
           d="m 244.15705,313.16117 c 0,-4.61426 -3.74023,-8.34961 -8.34961,-8.34961 -4.61426,0 -8.34961,3.73535 -8.34961,8.34961 0,4.60938 3.73535,8.34961 8.34961,8.34961 4.60938,0 8.34961,-3.74023 8.34961,-8.34961 z"
           style="fill:none;stroke:#ff0000;stroke-width:1.18771374;stroke-linecap:butt;stroke-linejoin:miter;stroke-miterlimit:10;stroke-opacity:1" />
        <path
           id="path4149"
           d="m 233.80549,313.6641 h 2.92969 c 1.01562,0 1.40625,0.48828 1.21094,1.60156 l -0.13672,0.80078 c -0.0977,0.54688 -0.0977,1.07422 0,1.44532 h 1.38672 l 0.0586,-0.27344 c -0.39063,-0.29297 -0.42969,-0.625 -0.25391,-1.79688 0.23438,-1.48437 0.0781,-1.91406 -0.82031,-2.32421 1.09375,-0.48829 1.58203,-1.11329 1.75781,-2.12891 0.25391,-1.54297 -0.5664,-2.38281 -2.30468,-2.38281 h -4.10157 l -1.5039,8.90625 h 1.13281 z m 0.17578,-0.99609 0.50781,-3.06641 h 2.75391 c 0.625,0 0.99609,0.0977 1.21094,0.35156 0.27344,0.25391 0.37109,0.64453 0.27344,1.19141 -0.15625,1.05469 -0.78125,1.52344 -1.99219,1.52344 z"
           style="fill:#000000;fill-opacity:1;fill-rule:nonzero;stroke:none" />
        <path
           id="path4151"
           d="m 280.97346,334.27933 c 0,-4.74121 -3.84278,-8.58398 -8.58399,-8.58398 -4.74121,0 -8.58398,3.84277 -8.58398,8.58398 0,4.74122 3.84277,8.58399 8.58398,8.58399 4.74121,0 8.58399,-3.84277 8.58399,-8.58399 z"
           style="fill:none;stroke:#11994f;stroke-width:1.18771374;stroke-linecap:butt;stroke-linejoin:miter;stroke-miterlimit:10;stroke-opacity:1" />
        <path
           id="path4153"
           d="m 276.78889,333.92777 h -3.71094 l -0.17578,0.9961 h 2.71484 l -0.0391,0.2539 c -0.25391,1.58203 -1.62109,2.73438 -3.26172,2.73438 -0.89844,0 -1.66015,-0.33203 -2.08984,-0.89844 -0.48828,-0.64453 -0.66406,-1.69922 -0.48828,-2.8125 0.37109,-2.1875 1.85547,-3.63281 3.75,-3.63281 1.34765,0 2.22656,0.70312 2.26562,1.85547 h 1.17188 c -0.0195,-1.81641 -1.21094,-2.85157 -3.26172,-2.85157 -1.07422,0 -2.01172,0.29297 -2.8125,0.85938 -1.17188,0.85937 -1.99219,2.24609 -2.2461,3.84765 -0.46875,2.73438 0.89844,4.62891 3.30079,4.62891 1.21093,0 2.24609,-0.44922 3.30078,-1.40625 l 0.0586,1.19141 h 0.72266 z"
           style="fill:#000000;fill-opacity:1;fill-rule:nonzero;stroke:none" />
        <path
           id="path4155"
           d="m 317.55549,313.16117 c 0,-4.74121 -3.84277,-8.58887 -8.58399,-8.58887 -4.74121,0 -8.58398,3.84766 -8.58398,8.58887 0,4.74121 3.84277,8.58398 8.58398,8.58398 4.74122,0 8.58399,-3.84277 8.58399,-8.58398 z"
           style="fill:none;stroke:#11994f;stroke-width:1.18771374;stroke-linecap:butt;stroke-linejoin:miter;stroke-miterlimit:10;stroke-opacity:1" />
        <path
           id="path4157"
           d="m 313.37092,312.80473 h -3.71094 l -0.17578,0.99609 h 2.71484 l -0.0391,0.25391 c -0.2539,1.58203 -1.62109,2.73437 -3.26172,2.73437 -0.89843,0 -1.66015,-0.33203 -2.08984,-0.89844 -0.48828,-0.64453 -0.66406,-1.69922 -0.48828,-2.8125 0.37109,-2.1875 1.85547,-3.63281 3.75,-3.63281 1.34765,0 2.22656,0.70313 2.26562,1.85547 h 1.17188 c -0.0195,-1.81641 -1.21094,-2.85156 -3.26172,-2.85156 -1.07422,0 -2.01172,0.29297 -2.8125,0.85937 -1.17188,0.85938 -1.99219,2.2461 -2.24609,3.84766 -0.46875,2.73437 0.89843,4.6289 3.30078,4.6289 1.21093,0 2.24609,-0.44921 3.30078,-1.40625 l 0.0586,1.19141 h 0.72266 z"
           style="fill:#000000;fill-opacity:1;fill-rule:nonzero;stroke:none" />
        <path
           id="path4159"
           d="m 317.06721,270.91508 c 0,-4.46778 -3.62305,-8.09082 -8.09571,-8.09082 -4.46777,0 -8.09082,3.62304 -8.09082,8.09082 0,4.47265 3.62305,8.0957 8.09082,8.0957 4.47266,0 8.09571,-3.62305 8.09571,-8.0957 z"
           style="fill:none;stroke:#0000ff;stroke-width:1.18771374;stroke-linecap:butt;stroke-linejoin:miter;stroke-miterlimit:10;stroke-opacity:1" />
        <path
           id="path4161"
           d="m 305.36311,275.27055 h 4.02343 c 0.85938,0 1.50391,-0.23438 2.07032,-0.74219 0.52734,-0.46875 0.8789,-1.11328 0.99609,-1.79688 0.17578,-1.07422 -0.21484,-1.71875 -1.26953,-2.16797 0.85937,-0.37109 1.40625,-1.03515 1.5625,-1.95312 0.11719,-0.64453 -0.0391,-1.21094 -0.44922,-1.62109 -0.39062,-0.42969 -0.95703,-0.625 -1.81641,-0.625 h -3.61328 z m 1.99218,-5.07813 0.46875,-2.83203 h 2.20704 c 0.64453,0 0.97656,0.0781 1.25,0.3125 0.27343,0.25391 0.37109,0.625 0.29296,1.11328 -0.0781,0.46875 -0.3125,0.83984 -0.66406,1.09375 -0.35156,0.23438 -0.72265,0.3125 -1.34765,0.3125 z m -0.68359,4.08203 0.52734,-3.0664 h 2.77344 c 0.54688,0 0.89844,0.11718 1.11328,0.41015 0.21485,0.29297 0.29297,0.6836 0.23438,1.11328 -0.0781,0.42969 -0.29297,0.82032 -0.60547,1.11328 -0.3125,0.29297 -0.70313,0.42969 -1.25,0.42969 z"
           style="fill:#000000;fill-opacity:1;fill-rule:nonzero;stroke:none" />
        <path
           id="path4163"
           d="m 280.31428,254.37211 20.95703,12.09961"
           style="fill:none;stroke:#000000;stroke-width:1.18771374;stroke-linecap:butt;stroke-linejoin:miter;stroke-miterlimit:10;stroke-opacity:1" />
        <path
           id="path4165"
           d="M 244.92854,270.91508 H 300.1092"
           style="fill:none;stroke:#000000;stroke-width:1.18771374;stroke-linecap:butt;stroke-linejoin:miter;stroke-miterlimit:10;stroke-opacity:1" />
        <path
           id="path4167"
           d="m 243.73225,308.58598 57.53906,-33.22266"
           style="fill:none;stroke:#000000;stroke-width:1.18771374;stroke-linecap:butt;stroke-linejoin:miter;stroke-miterlimit:10;stroke-opacity:1" />
        <path
           id="path4169"
           d="m 280.51936,329.58695 20.32714,-11.7334"
           style="fill:none;stroke:#000000;stroke-width:1.18771374;stroke-linecap:butt;stroke-linejoin:miter;stroke-miterlimit:10;stroke-opacity:1" />
      </g>
      <g
         id="g5917"
         transform="translate(125.59582,13.63732)">
        <path
           id="path4332"
           d="m 247.84274,88.162646 c 0,-4.282227 -3.47168,-7.753907 -7.75879,-7.753907 -4.28223,0 -7.75391,3.47168 -7.75391,7.753907 0,4.282226 3.47168,7.753906 7.75391,7.753906 4.28711,0 7.75879,-3.47168 7.75879,-7.753906 z"
           style="fill:none;stroke:#ff0000;stroke-width:0.72774875;stroke-linecap:butt;stroke-linejoin:miter;stroke-miterlimit:10;stroke-opacity:1" />
        <path
           id="path4334"
           d="m 237.19332,88.021044 h 1.79688 c 0.625,0 0.85937,0.292969 0.74219,0.976563 l -0.0977,0.46875 c -0.0586,0.351562 -0.0391,0.683594 0.0195,0.898437 h 0.83984 l 0.0391,-0.175781 c -0.23438,-0.175781 -0.25391,-0.371094 -0.15625,-1.09375 0.13672,-0.898437 0.0391,-1.171875 -0.50782,-1.425781 0.66407,-0.292969 0.97657,-0.683594 1.07422,-1.308594 0.15625,-0.9375 -0.33203,-1.445312 -1.40625,-1.445312 h -2.51953 l -0.89844,5.449218 h 0.6836 z m 0.11719,-0.625 0.3125,-1.875 h 1.67969 c 0.39062,0 0.60547,0.05859 0.74219,0.214844 0.17578,0.15625 0.21484,0.410156 0.17578,0.722656 -0.11719,0.644532 -0.48828,0.9375 -1.23047,0.9375 z"
           style="fill:#000000;fill-opacity:1;fill-rule:nonzero;stroke:none" />
        <path
           id="path4336"
           d="m 243.13571,83.333544 -1.05469,0.527344 v 0.07813 c 0.0781,-0.01953 0.13672,-0.03906 0.15625,-0.05859 0.11719,-0.03906 0.21484,-0.05859 0.27344,-0.05859 0.11718,0 0.17578,0.07813 0.17578,0.273437 v 2.636719 c 0,0.195312 -0.0586,0.332031 -0.13672,0.390625 -0.0977,0.03906 -0.17578,0.05859 -0.42969,0.07813 v 0.07813 h 1.62109 v -0.07813 c -0.46875,-0.01953 -0.5664,-0.07813 -0.5664,-0.351563 v -3.515625 z"
           style="fill:#000000;fill-opacity:1;fill-rule:nonzero;stroke:none" />
        <path
           id="path4338"
           d="m 243.13571,89.002489 -1.05469,0.527344 v 0.07813 c 0.0781,-0.01953 0.13672,-0.03906 0.15625,-0.05859 0.11719,-0.03906 0.21484,-0.05859 0.27344,-0.05859 0.11718,0 0.17578,0.07813 0.17578,0.273437 v 2.636719 c 0,0.195312 -0.0586,0.332031 -0.13672,0.390625 -0.0977,0.03906 -0.17578,0.05859 -0.42969,0.07813 v 0.07813 h 1.62109 v -0.07813 c -0.46875,-0.01954 -0.5664,-0.07813 -0.5664,-0.351563 v -3.515625 z"
           style="fill:#000000;fill-opacity:1;fill-rule:nonzero;stroke:none" />
        <path
           id="path4340"
           d="m 222.48629,96.399951 c 0,-4.282228 -3.47168,-7.753907 -7.75879,-7.753907 -4.28222,0 -7.7539,3.471679 -7.7539,7.753907 0,4.287109 3.47168,7.758789 7.7539,7.758789 4.28711,0 7.75879,-3.47168 7.75879,-7.758789 z"
           style="fill:none;stroke:#ff0000;stroke-width:0.72774875;stroke-linecap:butt;stroke-linejoin:miter;stroke-miterlimit:10;stroke-opacity:1" />
        <path
           id="path4342"
           d="m 211.84176,96.258348 h 1.79688 c 0.625,0 0.85937,0.292969 0.74218,0.976563 l -0.0977,0.46875 c -0.0586,0.351562 -0.0391,0.683593 0.0195,0.898437 h 0.83984 l 0.0391,-0.175781 c -0.23437,-0.175781 -0.2539,-0.371094 -0.15625,-1.09375 0.13672,-0.898438 0.0391,-1.171875 -0.50781,-1.425781 0.66406,-0.292969 0.97656,-0.683594 1.07422,-1.308594 0.15625,-0.9375 -0.33203,-1.445313 -1.40625,-1.445313 h -2.51953 l -0.89844,5.449219 h 0.6836 z m 0.11719,-0.625 0.3125,-1.875 h 1.67969 c 0.39062,0 0.60546,0.05859 0.74218,0.214844 0.17578,0.15625 0.21485,0.410156 0.17578,0.722656 -0.11718,0.644531 -0.48828,0.9375 -1.23046,0.9375 z"
           style="fill:#000000;fill-opacity:1;fill-rule:nonzero;stroke:none" />
        <path
           id="path4344"
           d="m 217.77926,91.570848 -1.05469,0.527344 v 0.07813 c 0.0781,-0.01953 0.13672,-0.03906 0.15625,-0.05859 0.11719,-0.03906 0.21485,-0.05859 0.27344,-0.05859 0.11719,0 0.17578,0.07813 0.17578,0.273438 v 2.636719 c 0,0.195312 -0.0586,0.332031 -0.13672,0.390625 -0.0977,0.03906 -0.17578,0.05859 -0.42968,0.07813 v 0.07813 h 1.62109 v -0.07813 c -0.46875,-0.01954 -0.56641,-0.07813 -0.56641,-0.351563 v -3.515625 z"
           style="fill:#000000;fill-opacity:1;fill-rule:nonzero;stroke:none" />
        <path
           id="path4346"
           d="m 218.85348,100.38433 -0.0781,-0.0195 c -0.21484,0.33203 -0.29296,0.37109 -0.54687,0.37109 h -1.40625 l 0.99609,-1.015623 c 0.50782,-0.546875 0.74219,-0.996094 0.74219,-1.445313 0,-0.585937 -0.46875,-1.035156 -1.09375,-1.035156 -0.3125,0 -0.625,0.117188 -0.83984,0.351563 -0.17578,0.214843 -0.27344,0.390625 -0.3711,0.800781 l 0.13672,0.03906 c 0.23438,-0.566406 0.42969,-0.761718 0.83985,-0.761718 0.48828,0 0.82031,0.332031 0.82031,0.820312 0,0.449219 -0.27344,0.996094 -0.76172,1.523444 l -1.03516,1.09375 v 0.0781 h 2.28516 z"
           style="fill:#000000;fill-opacity:1;fill-rule:nonzero;stroke:none" />
        <path
           id="path4348"
           d="m 206.86617,117.97222 c 0,-4.31641 -3.49609,-7.8125 -7.80761,-7.8125 -4.31641,0 -7.8125,3.49609 -7.8125,7.8125 0,4.31152 3.49609,7.80761 7.8125,7.80761 4.31152,0 7.80761,-3.49609 7.80761,-7.80761 z"
           style="fill:none;stroke:#ff0000;stroke-width:0.72774875;stroke-linecap:butt;stroke-linejoin:miter;stroke-miterlimit:10;stroke-opacity:1" />
        <path
           id="path4350"
           d="m 196.16793,117.78667 h 1.79688 c 0.625,0 0.85937,0.29297 0.74218,0.97656 l -0.0976,0.46875 c -0.0586,0.35156 -0.0391,0.6836 0.0195,0.89844 h 0.83984 l 0.0391,-0.17578 c -0.23438,-0.17578 -0.25391,-0.3711 -0.15625,-1.09375 0.13671,-0.89844 0.0391,-1.17188 -0.50782,-1.42578 0.66407,-0.29297 0.97657,-0.6836 1.07422,-1.3086 0.15625,-0.9375 -0.33203,-1.44531 -1.40625,-1.44531 h -2.51953 l -0.89844,5.44922 h 0.6836 z m 0.11719,-0.625 0.3125,-1.875 h 1.67969 c 0.39062,0 0.60547,0.0586 0.74218,0.21484 0.17579,0.15625 0.21485,0.41016 0.17579,0.72266 -0.11719,0.64453 -0.48829,0.9375 -1.23047,0.9375 z"
           style="fill:#000000;fill-opacity:1;fill-rule:nonzero;stroke:none" />
        <path
           id="path4352"
           d="m 202.11032,113.09917 -1.05469,0.52734 v 0.0781 c 0.0781,-0.0195 0.13672,-0.0391 0.15625,-0.0586 0.11719,-0.0391 0.21484,-0.0586 0.27344,-0.0586 0.11718,0 0.17578,0.0781 0.17578,0.27344 v 2.63672 c 0,0.19531 -0.0586,0.33203 -0.13672,0.39062 -0.0977,0.0391 -0.17578,0.0586 -0.42969,0.0781 v 0.0781 h 1.62109 v -0.0781 c -0.46875,-0.0195 -0.5664,-0.0781 -0.5664,-0.35156 v -3.51563 z"
           style="fill:#000000;fill-opacity:1;fill-rule:nonzero;stroke:none" />
        <path
           id="path4354"
           d="m 201.30953,120.77983 c 0.33204,0 0.46875,0.0195 0.60547,0.0781 0.3711,0.11719 0.60547,0.44922 0.60547,0.85937 0,0.48828 -0.33203,0.85938 -0.78125,0.85938 -0.15625,0 -0.27344,-0.0391 -0.48828,-0.17578 -0.17578,-0.0977 -0.27344,-0.13672 -0.37109,-0.13672 -0.13672,0 -0.21485,0.0781 -0.21485,0.19531 0,0.21484 0.25391,0.33203 0.66407,0.33203 0.44921,0 0.89843,-0.15625 1.17187,-0.39062 0.27344,-0.23438 0.42969,-0.56641 0.42969,-0.95703 0,-0.3125 -0.0977,-0.58594 -0.25391,-0.76172 -0.11719,-0.13672 -0.23437,-0.19532 -0.48828,-0.3125 0.41016,-0.27344 0.54688,-0.48828 0.54688,-0.80078 0,-0.46875 -0.3711,-0.80079 -0.91797,-0.80079 -0.29297,0 -0.54688,0.0977 -0.76172,0.29297 -0.15625,0.15625 -0.25391,0.29297 -0.39063,0.64453 l 0.0977,0.0391 c 0.23437,-0.42969 0.50781,-0.625 0.85937,-0.625 0.39063,0 0.64454,0.2539 0.64454,0.625 0,0.21484 -0.0781,0.41015 -0.23438,0.5664 -0.17578,0.17578 -0.33203,0.25391 -0.72266,0.39063 z"
           style="fill:#000000;fill-opacity:1;fill-rule:nonzero;stroke:none" />
        <path
           id="path4356"
           d="m 206.90035,144.63237 c 0,-4.33105 -3.51074,-7.84179 -7.84179,-7.84179 -4.33106,0 -7.8418,3.51074 -7.8418,7.84179 0,4.33106 3.51074,7.8418 7.8418,7.8418 4.33105,0 7.84179,-3.51074 7.84179,-7.8418 z"
           style="fill:none;stroke:#11994f;stroke-width:0.72774875;stroke-linecap:butt;stroke-linejoin:miter;stroke-miterlimit:10;stroke-opacity:1" />
        <path
           id="path4358"
           d="m 200.08395,144.11479 h -2.26563 l -0.0976,0.60547 h 1.66015 l -0.0391,0.15625 c -0.15625,0.95703 -0.99609,1.66016 -1.99219,1.66016 -0.54687,0 -1.01562,-0.19531 -1.28906,-0.54688 -0.29297,-0.39062 -0.39062,-1.03515 -0.29297,-1.71875 0.23438,-1.32812 1.15235,-2.20703 2.30469,-2.20703 0.82031,0 1.34766,0.41016 1.38672,1.11328 h 0.70312 c 0,-1.09375 -0.74218,-1.73828 -1.99218,-1.73828 -0.66407,0 -1.23047,0.17578 -1.71875,0.52735 -0.70313,0.52734 -1.21094,1.36718 -1.36719,2.34375 -0.29297,1.67968 0.54687,2.85156 2.01172,2.85156 0.74218,0 1.38672,-0.27344 2.01172,-0.87891 l 0.0586,0.74219 h 0.42969 z"
           style="fill:#000000;fill-opacity:1;fill-rule:nonzero;stroke:none" />
        <path
           id="path4360"
           d="m 202.19332,139.80327 -1.05468,0.52734 v 0.0781 c 0.0781,-0.0195 0.13671,-0.0391 0.15625,-0.0586 0.11718,-0.0391 0.21484,-0.0586 0.27343,-0.0586 0.11719,0 0.17578,0.0781 0.17578,0.27344 v 2.63672 c 0,0.19531 -0.0586,0.33203 -0.13671,0.39063 -0.0977,0.0391 -0.17579,0.0586 -0.42969,0.0781 v 0.0781 h 1.62109 v -0.0781 c -0.46875,-0.0195 -0.5664,-0.0781 -0.5664,-0.35156 v -3.51563 z"
           style="fill:#000000;fill-opacity:1;fill-rule:nonzero;stroke:none" />
        <path
           id="path4362"
           d="m 202.19332,145.47222 -1.05468,0.52734 v 0.0781 c 0.0781,-0.0195 0.13671,-0.0391 0.15625,-0.0586 0.11718,-0.0391 0.21484,-0.0586 0.27343,-0.0586 0.11719,0 0.17578,0.0781 0.17578,0.27344 v 2.63672 c 0,0.19531 -0.0586,0.33203 -0.13671,0.39062 -0.0977,0.0391 -0.17579,0.0586 -0.42969,0.0781 v 0.0781 h 1.62109 v -0.0781 c -0.46875,-0.0195 -0.5664,-0.0781 -0.5664,-0.35157 v -3.51562 z"
           style="fill:#000000;fill-opacity:1;fill-rule:nonzero;stroke:none" />
        <path
           id="path4364"
           d="m 222.5693,166.19975 c 0,-4.33105 -3.51074,-7.83691 -7.8418,-7.83691 -4.33105,0 -7.83691,3.50586 -7.83691,7.83691 0,4.33106 3.50586,7.8418 7.83691,7.8418 4.33106,0 7.8418,-3.51074 7.8418,-7.8418 z"
           style="fill:none;stroke:#11994f;stroke-width:0.72774875;stroke-linecap:butt;stroke-linejoin:miter;stroke-miterlimit:10;stroke-opacity:1" />
        <path
           id="path4366"
           d="m 215.75778,165.68218 h -2.26563 l -0.0977,0.60547 h 1.66015 l -0.0391,0.15625 c -0.15625,0.95703 -0.99609,1.66015 -1.99219,1.66015 -0.54687,0 -1.01562,-0.19531 -1.28906,-0.54687 -0.29297,-0.39063 -0.39062,-1.03516 -0.29297,-1.71875 0.23438,-1.32813 1.15235,-2.20703 2.30469,-2.20703 0.82031,0 1.34766,0.41015 1.38672,1.11328 h 0.70312 c 0,-1.09375 -0.74218,-1.73828 -1.99218,-1.73828 -0.66407,0 -1.23047,0.17578 -1.71875,0.52734 -0.70313,0.52734 -1.21094,1.36719 -1.36719,2.34375 -0.29297,1.67969 0.54687,2.85156 2.01172,2.85156 0.74219,0 1.38672,-0.27344 2.01172,-0.8789 l 0.0586,0.74218 h 0.42969 z"
           style="fill:#000000;fill-opacity:1;fill-rule:nonzero;stroke:none" />
        <path
           id="path4368"
           d="m 218.94137,164.51518 -0.0781,-0.0195 c -0.21484,0.33203 -0.29296,0.37109 -0.54687,0.37109 h -1.40625 l 0.99609,-1.01562 c 0.50782,-0.54688 0.74219,-0.9961 0.74219,-1.44532 0,-0.58593 -0.46875,-1.03515 -1.09375,-1.03515 -0.3125,0 -0.625,0.11718 -0.83984,0.35156 -0.17578,0.21484 -0.27344,0.39062 -0.3711,0.80078 l 0.13672,0.0391 c 0.23438,-0.5664 0.42969,-0.76172 0.83985,-0.76172 0.48828,0 0.82031,0.33204 0.82031,0.82032 0,0.44922 -0.27344,0.99609 -0.76172,1.52343 l -1.03516,1.09375 v 0.0781 h 2.28516 z"
           style="fill:#000000;fill-opacity:1;fill-rule:nonzero;stroke:none" />
        <path
           id="path4370"
           d="m 217.86715,167.0396 -1.05469,0.52734 v 0.0781 c 0.0781,-0.0195 0.13672,-0.0391 0.15625,-0.0586 0.11719,-0.0391 0.21485,-0.0586 0.27344,-0.0586 0.11719,0 0.17578,0.0781 0.17578,0.27344 v 2.63672 c 0,0.19531 -0.0586,0.33203 -0.13672,0.39062 -0.0977,0.0391 -0.17578,0.0586 -0.42968,0.0781 v 0.0781 h 1.62109 v -0.0781 c -0.46875,-0.0195 -0.56641,-0.0781 -0.56641,-0.35156 v -3.51563 z"
           style="fill:#000000;fill-opacity:1;fill-rule:nonzero;stroke:none" />
        <path
           id="path4372"
           d="m 247.92574,174.44194 c 0,-4.33105 -3.51074,-7.84179 -7.84179,-7.84179 -4.33106,0 -7.8418,3.51074 -7.8418,7.84179 0,4.33106 3.51074,7.83692 7.8418,7.83692 4.33105,0 7.84179,-3.50586 7.84179,-7.83692 z"
           style="fill:none;stroke:#11994f;stroke-width:0.72774875;stroke-linecap:butt;stroke-linejoin:miter;stroke-miterlimit:10;stroke-opacity:1" />
        <path
           id="path4374"
           d="m 241.11422,173.91948 h -2.26562 l -0.0977,0.60547 h 1.66016 l -0.0391,0.15625 c -0.15625,0.95703 -0.9961,1.66016 -1.99219,1.66016 -0.54687,0 -1.01562,-0.19532 -1.28906,-0.54688 -0.29297,-0.39062 -0.39063,-1.03515 -0.29297,-1.71875 0.23437,-1.32812 1.15234,-2.20703 2.30469,-2.20703 0.82031,0 1.34765,0.41016 1.38672,1.11328 h 0.70312 c 0,-1.09375 -0.74219,-1.73828 -1.99219,-1.73828 -0.66406,0 -1.23047,0.17578 -1.71875,0.52734 -0.70312,0.52735 -1.21093,1.36719 -1.36718,2.34375 -0.29297,1.67969 0.54687,2.85157 2.01171,2.85157 0.74219,0 1.38672,-0.27344 2.01172,-0.87891 l 0.0586,0.74219 h 0.42969 z"
           style="fill:#000000;fill-opacity:1;fill-rule:nonzero;stroke:none" />
        <path
           id="path4376"
           d="m 243.2236,169.60796 -1.05469,0.52734 v 0.0781 c 0.0781,-0.0195 0.13672,-0.0391 0.15625,-0.0586 0.11719,-0.0391 0.21484,-0.0586 0.27344,-0.0586 0.11718,0 0.17578,0.0781 0.17578,0.27344 v 2.63672 c 0,0.19531 -0.0586,0.33203 -0.13672,0.39062 -0.0977,0.0391 -0.17578,0.0586 -0.42969,0.0781 v 0.0781 h 1.6211 v -0.0781 c -0.46875,-0.0195 -0.56641,-0.0781 -0.56641,-0.35156 v -3.51563 z"
           style="fill:#000000;fill-opacity:1;fill-rule:nonzero;stroke:none" />
        <path
           id="path4378"
           d="m 244.29782,178.42143 -0.0781,-0.0195 c -0.21484,0.33203 -0.29297,0.37109 -0.54687,0.37109 h -1.40625 l 0.99609,-1.01562 c 0.50781,-0.54688 0.74219,-0.9961 0.74219,-1.44532 0,-0.58593 -0.46875,-1.03515 -1.09375,-1.03515 -0.3125,0 -0.625,0.11718 -0.83985,0.35156 -0.17578,0.21484 -0.27343,0.39062 -0.37109,0.80078 l 0.13672,0.0391 c 0.23437,-0.5664 0.42969,-0.76172 0.83984,-0.76172 0.48828,0 0.82031,0.33204 0.82031,0.82032 0,0.44922 -0.27343,0.99609 -0.76171,1.52343 l -1.03516,1.09375 v 0.0781 h 2.28516 z"
           style="fill:#000000;fill-opacity:1;fill-rule:nonzero;stroke:none" />
        <path
           id="path4380"
           d="m 273.28219,166.19975 c 0,-4.33105 -3.51074,-7.83691 -7.8418,-7.83691 -4.33105,0 -7.84179,3.50586 -7.84179,7.83691 0,4.33106 3.51074,7.8418 7.84179,7.8418 4.33106,0 7.8418,-3.51074 7.8418,-7.8418 z"
           style="fill:none;stroke:#11994f;stroke-width:0.72774875;stroke-linecap:butt;stroke-linejoin:miter;stroke-miterlimit:10;stroke-opacity:1" />
        <path
           id="path4382"
           d="m 266.47067,165.68218 h -2.26563 l -0.0977,0.60547 h 1.66016 l -0.0391,0.15625 c -0.15625,0.95703 -0.99609,1.66015 -1.99218,1.66015 -0.54688,0 -1.01563,-0.19531 -1.28907,-0.54687 -0.29297,-0.39063 -0.39062,-1.03516 -0.29297,-1.71875 0.23438,-1.32813 1.15235,-2.20703 2.30469,-2.20703 0.82031,0 1.34766,0.41015 1.38672,1.11328 h 0.70313 c 0,-1.09375 -0.74219,-1.73828 -1.99219,-1.73828 -0.66406,0 -1.23047,0.17578 -1.71875,0.52734 -0.70313,0.52734 -1.21094,1.36719 -1.36719,2.34375 -0.29297,1.67969 0.54688,2.85156 2.01172,2.85156 0.74219,0 1.38672,-0.27344 2.01172,-0.8789 l 0.0586,0.74218 h 0.42968 z"
           style="fill:#000000;fill-opacity:1;fill-rule:nonzero;stroke:none" />
        <path
           id="path4384"
           d="m 269.64938,164.51518 -0.0781,-0.0195 c -0.21484,0.33203 -0.29297,0.37109 -0.54687,0.37109 h -1.40625 l 0.99609,-1.01562 c 0.50781,-0.54688 0.74219,-0.9961 0.74219,-1.44532 0,-0.58593 -0.46875,-1.03515 -1.09375,-1.03515 -0.3125,0 -0.625,0.11718 -0.83984,0.35156 -0.17579,0.21484 -0.27344,0.39062 -0.3711,0.80078 l 0.13672,0.0391 c 0.23438,-0.5664 0.42969,-0.76172 0.83984,-0.76172 0.48829,0 0.82032,0.33204 0.82032,0.82032 0,0.44922 -0.27344,0.99609 -0.76172,1.52343 l -1.03516,1.09375 v 0.0781 h 2.28516 z"
           style="fill:#000000;fill-opacity:1;fill-rule:nonzero;stroke:none" />
        <path
           id="path4386"
           d="m 269.64938,170.18413 -0.0781,-0.0195 c -0.21484,0.33203 -0.29297,0.3711 -0.54687,0.3711 h -1.40625 l 0.99609,-1.01563 c 0.50781,-0.54687 0.74219,-0.99609 0.74219,-1.44531 0,-0.58594 -0.46875,-1.03516 -1.09375,-1.03516 -0.3125,0 -0.625,0.11719 -0.83984,0.35156 -0.17579,0.21485 -0.27344,0.39063 -0.3711,0.80079 l 0.13672,0.0391 c 0.23438,-0.56641 0.42969,-0.76172 0.83984,-0.76172 0.48829,0 0.82032,0.33203 0.82032,0.82031 0,0.44922 -0.27344,0.9961 -0.76172,1.52344 l -1.03516,1.09375 v 0.0781 h 2.28516 z"
           style="fill:#000000;fill-opacity:1;fill-rule:nonzero;stroke:none" />
        <path
           id="path4388"
           d="m 288.70211,144.63237 c 0,-4.19433 -3.39844,-7.59277 -7.58789,-7.59277 -4.19433,0 -7.59277,3.39844 -7.59277,7.59277 0,4.19434 3.39844,7.59278 7.59277,7.59278 4.18945,0 7.58789,-3.39844 7.58789,-7.59278 z"
           style="fill:none;stroke:#0000ff;stroke-width:0.72774875;stroke-linecap:butt;stroke-linejoin:miter;stroke-miterlimit:10;stroke-opacity:1" />
        <path
           id="path4390"
           d="m 277.24703,146.82964 h 2.46094 c 0.52735,0 0.91797,-0.13672 1.26953,-0.44922 0.3125,-0.29297 0.52735,-0.68359 0.60547,-1.11328 0.0977,-0.64453 -0.11719,-1.05469 -0.78125,-1.3086 0.52735,-0.23437 0.85938,-0.64453 0.95703,-1.1914 0.0781,-0.41016 -0.0195,-0.76172 -0.27343,-1.01563 -0.23438,-0.2539 -0.58594,-0.37109 -1.11329,-0.37109 H 278.165 Z m 1.21094,-3.10547 0.29297,-1.73828 h 1.34766 c 0.39062,0 0.60547,0.0586 0.76172,0.19531 0.17578,0.15625 0.23437,0.37109 0.19531,0.68359 -0.0586,0.29297 -0.19531,0.50782 -0.41016,0.66407 -0.21484,0.13672 -0.44922,0.19531 -0.83984,0.19531 z m -0.41015,2.5 0.3125,-1.89453 h 1.69921 c 0.33204,0 0.54688,0.0977 0.6836,0.27344 0.13672,0.17578 0.19531,0.41015 0.13672,0.68359 -0.0391,0.25391 -0.17578,0.48828 -0.35157,0.66406 -0.19531,0.17578 -0.44921,0.27344 -0.78125,0.27344 z"
           style="fill:#000000;fill-opacity:1;fill-rule:nonzero;stroke:none" />
        <path
           id="path4392"
           d="m 283.95114,139.80327 -1.05469,0.52734 v 0.0781 c 0.0781,-0.0195 0.13672,-0.0391 0.15625,-0.0586 0.11719,-0.0391 0.21484,-0.0586 0.27344,-0.0586 0.11718,0 0.17578,0.0781 0.17578,0.27344 v 2.63672 c 0,0.19531 -0.0586,0.33203 -0.13672,0.39063 -0.0977,0.0391 -0.17578,0.0586 -0.42969,0.0781 v 0.0781 h 1.62109 v -0.0781 c -0.46875,-0.0195 -0.5664,-0.0781 -0.5664,-0.35156 v -3.51563 z"
           style="fill:#000000;fill-opacity:1;fill-rule:nonzero;stroke:none" />
        <path
           id="path4394"
           d="m 283.95114,145.47222 -1.05469,0.52734 v 0.0781 c 0.0781,-0.0195 0.13672,-0.0391 0.15625,-0.0586 0.11719,-0.0391 0.21484,-0.0586 0.27344,-0.0586 0.11718,0 0.17578,0.0781 0.17578,0.27344 v 2.63672 c 0,0.19531 -0.0586,0.33203 -0.13672,0.39062 -0.0977,0.0391 -0.17578,0.0586 -0.42969,0.0781 v 0.0781 h 1.62109 v -0.0781 c -0.46875,-0.0195 -0.5664,-0.0781 -0.5664,-0.35157 v -3.51562 z"
           style="fill:#000000;fill-opacity:1;fill-rule:nonzero;stroke:none" />
        <path
           id="path4396"
           d="m 288.70211,117.97222 c 0,-4.19434 -3.39844,-7.59278 -7.58789,-7.59278 -4.19433,0 -7.59277,3.39844 -7.59277,7.59278 0,4.18945 3.39844,7.58789 7.59277,7.58789 4.18945,0 7.58789,-3.39844 7.58789,-7.58789 z"
           style="fill:none;stroke:#0000ff;stroke-width:0.72774875;stroke-linecap:butt;stroke-linejoin:miter;stroke-miterlimit:10;stroke-opacity:1" />
        <path
           id="path4398"
           d="m 277.24703,120.16948 h 2.46094 c 0.52735,0 0.91797,-0.13672 1.26953,-0.44922 0.3125,-0.29297 0.52735,-0.68359 0.60547,-1.11328 0.0977,-0.64453 -0.11719,-1.05469 -0.78125,-1.30859 0.52735,-0.23438 0.85938,-0.64453 0.95703,-1.19141 0.0781,-0.41015 -0.0195,-0.76172 -0.27343,-1.01562 -0.23438,-0.25391 -0.58594,-0.3711 -1.11329,-0.3711 H 278.165 Z m 1.21094,-3.10547 0.29297,-1.73828 h 1.34766 c 0.39062,0 0.60547,0.0586 0.76172,0.19531 0.17578,0.15625 0.23437,0.3711 0.19531,0.6836 -0.0586,0.29297 -0.19531,0.50781 -0.41016,0.66406 -0.21484,0.13672 -0.44922,0.19531 -0.83984,0.19531 z m -0.41015,2.5 0.3125,-1.89453 h 1.69921 c 0.33204,0 0.54688,0.0977 0.6836,0.27344 0.13672,0.17578 0.19531,0.41016 0.13672,0.68359 -0.0391,0.25391 -0.17578,0.48828 -0.35157,0.66407 -0.19531,0.17578 -0.44921,0.27343 -0.78125,0.27343 z"
           style="fill:#000000;fill-opacity:1;fill-rule:nonzero;stroke:none" />
        <path
           id="path4400"
           d="m 285.02535,116.28276 -0.0781,-0.0195 c -0.21484,0.33203 -0.29297,0.37109 -0.54688,0.37109 h -1.40625 l 0.9961,-1.01563 c 0.50781,-0.54687 0.74219,-0.99609 0.74219,-1.44531 0,-0.58594 -0.46875,-1.03515 -1.09375,-1.03515 -0.3125,0 -0.625,0.11718 -0.83985,0.35156 -0.17578,0.21484 -0.27344,0.39062 -0.37109,0.80078 l 0.13672,0.0391 c 0.23437,-0.5664 0.42968,-0.76172 0.83984,-0.76172 0.48828,0 0.82031,0.33203 0.82031,0.82032 0,0.44921 -0.27343,0.99609 -0.76172,1.52343 l -1.03515,1.09375 v 0.0781 h 2.28515 z"
           style="fill:#000000;fill-opacity:1;fill-rule:nonzero;stroke:none" />
        <path
           id="path4402"
           d="m 283.95114,118.80718 -1.05469,0.52734 v 0.0781 c 0.0781,-0.0195 0.13672,-0.0391 0.15625,-0.0586 0.11719,-0.0391 0.21484,-0.0586 0.27344,-0.0586 0.11718,0 0.17578,0.0781 0.17578,0.27344 v 2.63672 c 0,0.19531 -0.0586,0.33203 -0.13672,0.39062 -0.0977,0.0391 -0.17578,0.0586 -0.42969,0.0781 v 0.0781 h 1.62109 v -0.0781 c -0.46875,-0.0195 -0.5664,-0.0781 -0.5664,-0.35157 v -3.51562 z"
           style="fill:#000000;fill-opacity:1;fill-rule:nonzero;stroke:none" />
        <path
           id="path4404"
           d="m 273.08688,96.399951 c 0,-4.21875 -3.42285,-7.641603 -7.64649,-7.641603 -4.21875,0 -7.6416,3.422853 -7.6416,7.641603 0,4.223629 3.42285,7.646479 7.6416,7.646479 4.22364,0 7.64649,-3.42285 7.64649,-7.646479 z"
           style="fill:none;stroke:#0000ff;stroke-width:0.72774875;stroke-linecap:butt;stroke-linejoin:miter;stroke-miterlimit:10;stroke-opacity:1" />
        <path
           id="path4406"
           d="m 261.57321,98.563036 h 2.46093 c 0.52735,0 0.91797,-0.136719 1.26953,-0.449219 0.3125,-0.292969 0.52735,-0.683594 0.60547,-1.113281 0.0977,-0.644532 -0.11718,-1.054688 -0.78125,-1.308594 0.52735,-0.234375 0.85938,-0.644531 0.95703,-1.191406 0.0781,-0.410157 -0.0195,-0.761719 -0.27343,-1.015625 -0.23438,-0.253907 -0.58594,-0.371094 -1.11328,-0.371094 h -2.20704 z m 1.21093,-3.105469 0.29297,-1.738281 h 1.34766 c 0.39062,0 0.60547,0.05859 0.76172,0.195312 0.17578,0.15625 0.23437,0.371094 0.19531,0.683594 -0.0586,0.292969 -0.19531,0.507812 -0.41016,0.664062 -0.21484,0.136719 -0.44922,0.195313 -0.83984,0.195313 z m -0.41015,2.5 0.3125,-1.894531 h 1.69922 c 0.33203,0 0.54687,0.09766 0.68359,0.273437 0.13672,0.175781 0.19531,0.410156 0.13672,0.683594 -0.0391,0.253906 -0.17578,0.488281 -0.35156,0.664062 -0.19532,0.175782 -0.44922,0.273438 -0.78125,0.273438 z"
           style="fill:#000000;fill-opacity:1;fill-rule:nonzero;stroke:none" />
        <path
           id="path4408"
           d="m 267.47653,93.543504 c 0.33203,0 0.46875,0.01954 0.60546,0.07813 0.3711,0.117188 0.60547,0.449219 0.60547,0.859375 0,0.488282 -0.33203,0.859375 -0.78125,0.859375 -0.15625,0 -0.27343,-0.03906 -0.48828,-0.175781 -0.17578,-0.09766 -0.27344,-0.136719 -0.37109,-0.136719 -0.13672,0 -0.21485,0.07813 -0.21485,0.195313 0,0.214844 0.25391,0.332031 0.66407,0.332031 0.44922,0 0.89843,-0.15625 1.17187,-0.390625 0.27344,-0.234375 0.42969,-0.566406 0.42969,-0.957031 0,-0.3125 -0.0977,-0.585938 -0.25391,-0.761719 -0.11718,-0.136719 -0.23437,-0.195312 -0.48828,-0.3125 0.41016,-0.273437 0.54688,-0.488281 0.54688,-0.800781 0,-0.46875 -0.3711,-0.800781 -0.91797,-0.800781 -0.29297,0 -0.54688,0.09766 -0.76172,0.292968 -0.15625,0.15625 -0.25391,0.292969 -0.39063,0.644532 l 0.0977,0.03906 c 0.23437,-0.429687 0.50781,-0.625 0.85937,-0.625 0.39063,0 0.64453,0.253906 0.64453,0.625 0,0.214844 -0.0781,0.410156 -0.23437,0.566406 -0.17578,0.175782 -0.33203,0.253907 -0.72266,0.390625 z"
           style="fill:#000000;fill-opacity:1;fill-rule:nonzero;stroke:none" />
        <path
           id="path4410"
           d="m 268.27731,97.278857 -1.05469,0.527344 v 0.07813 c 0.0781,-0.01954 0.13672,-0.03906 0.15625,-0.05859 0.11719,-0.03906 0.21484,-0.05859 0.27344,-0.05859 0.11718,0 0.17578,0.07813 0.17578,0.273438 v 2.636721 c 0,0.19531 -0.0586,0.33203 -0.13672,0.39062 -0.0977,0.0391 -0.17578,0.0586 -0.42969,0.0781 v 0.0781 h 1.6211 v -0.0781 c -0.46875,-0.0195 -0.56641,-0.0781 -0.56641,-0.35157 v -3.51562 z"
           style="fill:#000000;fill-opacity:1;fill-rule:nonzero;stroke:none" />
        <path
           id="path4412"
           d="m 257.7109,93.890184 -9.79004,-3.178711"
           style="fill:none;stroke:#000000;stroke-width:0.72774875;stroke-linecap:butt;stroke-linejoin:miter;stroke-miterlimit:10;stroke-opacity:1" />
        <path
           id="path4414"
           d="M 273.43356,115.4771 222.56442,98.948778"
           style="fill:none;stroke:#000000;stroke-width:0.72774875;stroke-linecap:butt;stroke-linejoin:miter;stroke-miterlimit:10;stroke-opacity:1" />
        <path
           id="path4416"
           d="M 273.43356,142.13725 206.94918,120.53569"
           style="fill:none;stroke:#000000;stroke-width:0.72774875;stroke-linecap:butt;stroke-linejoin:miter;stroke-miterlimit:10;stroke-opacity:1" />
        <path
           id="path4418"
           d="m 257.52535,163.62651 -50.54687,-16.4209"
           style="fill:none;stroke:#000000;stroke-width:0.72774875;stroke-linecap:butt;stroke-linejoin:miter;stroke-miterlimit:10;stroke-opacity:1" />
        <path
           id="path4420"
           d="m 232.16891,171.8687 -9.52149,-3.0957"
           style="fill:none;stroke:#000000;stroke-width:0.72774875;stroke-linecap:butt;stroke-linejoin:miter;stroke-miterlimit:10;stroke-opacity:1" />
        <path
           id="path4422"
           d="m 203.9609,151.38042 5.86426,8.07617"
           style="fill:none;stroke:#000000;stroke-width:0.72774875;stroke-linecap:butt;stroke-linejoin:miter;stroke-miterlimit:10;stroke-opacity:1" />
        <path
           id="path4424"
           d="m 248.00387,171.8687 9.52148,-3.0957"
           style="fill:none;stroke:#000000;stroke-width:0.72774875;stroke-linecap:butt;stroke-linejoin:miter;stroke-miterlimit:10;stroke-opacity:1" />
        <path
           id="path4426"
           d="M 281.11422,136.57085 V 126.03374"
           style="fill:none;stroke:#000000;stroke-width:0.72774875;stroke-linecap:butt;stroke-linejoin:miter;stroke-miterlimit:10;stroke-opacity:1" />
        <path
           id="path4428"
           d="M 278.6191,136.95171 267.95504,104.13433"
           style="fill:none;stroke:#000000;stroke-width:0.72774875;stroke-linecap:butt;stroke-linejoin:miter;stroke-miterlimit:10;stroke-opacity:1" />
        <path
           id="path4430"
           d="m 276.35836,111.42925 -6.13281,-8.44239"
           style="fill:none;stroke:#000000;stroke-width:0.72774875;stroke-linecap:butt;stroke-linejoin:miter;stroke-miterlimit:10;stroke-opacity:1" />
      </g>
      <g
         id="g6551"
         transform="translate(-290.98327,-21.51252)">
        <path
           id="path4719"
           d="m 522.17138,55.350561 c 0,-4.013676 -3.25195,-7.270511 -7.27052,-7.270511 -4.01366,0 -7.2705,3.256835 -7.2705,7.270511 0,4.01855 3.25684,7.2705 7.2705,7.2705 4.01857,0 7.27052,-3.25195 7.27052,-7.2705 z"
           style="fill:none;stroke:#ff0000;stroke-width:0.68230379;stroke-linecap:butt;stroke-linejoin:miter;stroke-miterlimit:10;stroke-opacity:1" />
        <path
           id="path4721"
           d="m 512.21044,55.208961 h 1.67969 c 0.58593,0 0.80078,0.27343 0.70312,0.91796 l -0.0976,0.44922 c -0.039,0.3125 -0.039,0.625 0.0195,0.83985 h 0.78125 l 0.039,-0.15625 c -0.21484,-0.17578 -0.23438,-0.35157 -0.13672,-1.03516 0.13672,-0.83984 0.039,-1.09375 -0.46875,-1.34766 0.625,-0.27343 0.89844,-0.625 0.99609,-1.21093 0.15625,-0.89844 -0.3125,-1.36719 -1.32812,-1.36719 h -2.36328 l -0.85937,5.11719 h 0.66406 z m 0.0976,-0.58594 0.29297,-1.75781 h 1.58203 c 0.37109,0 0.5664,0.0586 0.70313,0.19531 0.15625,0.15625 0.19531,0.39062 0.15625,0.68359 -0.0976,0.60547 -0.46875,0.87891 -1.15235,0.87891 z"
           style="fill:#000000;fill-opacity:1;fill-rule:nonzero;stroke:none" />
        <path
           id="path4723"
           d="m 517.75243,50.833957 -0.97657,0.488281 v 0.07813 c 0.0586,-0.01953 0.13673,-0.03906 0.15625,-0.05859 0.0976,-0.03906 0.17579,-0.05859 0.23438,-0.05859 0.11712,0 0.17579,0.07813 0.17579,0.253903 v 2.48047 c 0,0.17578 -0.0586,0.3125 -0.13673,0.35156 -0.0781,0.0586 -0.15625,0.0781 -0.39062,0.0781 v 0.0781 h 1.50391 v -0.0781 c -0.42969,0 -0.50781,-0.0586 -0.50781,-0.33203 V 50.83394 Z"
           style="fill:#000000;fill-opacity:1;fill-rule:nonzero;stroke:none" />
        <path
           id="path4725"
           d="m 517.75243,56.146461 -0.97657,0.48828 v 0.0781 c 0.0586,-0.0195 0.13673,-0.0391 0.15625,-0.0586 0.0976,-0.0391 0.17579,-0.0586 0.23438,-0.0586 0.11712,0 0.17579,0.0781 0.17579,0.25391 v 2.48047 c 0,0.17578 -0.0586,0.3125 -0.13673,0.35156 -0.0781,0.0586 -0.15625,0.0781 -0.39062,0.0781 v 0.0781 h 1.50391 v -0.0781 c -0.42969,0 -0.50781,-0.0586 -0.50781,-0.33203 v -3.28125 z"
           style="fill:#000000;fill-opacity:1;fill-rule:nonzero;stroke:none" />
        <path
           id="path4727"
           d="m 498.40185,63.075171 c 0,-4.01368 -3.25684,-7.27051 -7.27051,-7.27051 -4.01856,0 -7.27539,3.25683 -7.27539,7.27051 0,4.01855 3.25683,7.2705 7.27539,7.2705 4.01367,0 7.27051,-3.25195 7.27051,-7.2705 z"
           style="fill:none;stroke:#ff0000;stroke-width:0.68230379;stroke-linecap:butt;stroke-linejoin:miter;stroke-miterlimit:10;stroke-opacity:1" />
        <path
           id="path4729"
           d="m 488.43603,62.933561 h 1.67968 c 0.58594,0 0.80078,0.27344 0.70313,0.91797 l -0.0977,0.44922 c -0.0391,0.3125 -0.0391,0.625 0.0195,0.83985 h 0.78125 l 0.0391,-0.15625 c -0.21484,-0.17579 -0.23437,-0.35157 -0.13672,-1.03516 0.13672,-0.83984 0.0391,-1.09375 -0.46875,-1.34766 0.625,-0.27343 0.89844,-0.625 0.9961,-1.21093 0.15625,-0.89844 -0.3125,-1.36719 -1.32813,-1.36719 h -2.36328 l -0.85937,5.11719 h 0.66406 z m 0.0977,-0.58593 0.29297,-1.75782 h 1.58203 c 0.37109,0 0.5664,0.0586 0.70312,0.19532 0.15625,0.15625 0.19532,0.39062 0.15625,0.68359 -0.0977,0.60547 -0.46875,0.87891 -1.15234,0.87891 z"
           style="fill:#000000;fill-opacity:1;fill-rule:nonzero;stroke:none" />
        <path
           id="path4731"
           d="m 493.97802,58.553681 -0.97656,0.48828 v 0.0781 c 0.0586,-0.0195 0.13671,-0.0391 0.15625,-0.0586 0.0977,-0.0391 0.17578,-0.0586 0.23437,-0.0586 0.11719,0 0.17578,0.0781 0.17578,0.25391 v 2.48047 c 0,0.17578 -0.0586,0.3125 -0.13672,0.35156 -0.0781,0.0586 -0.15625,0.0781 -0.39062,0.0781 v 0.0781 h 1.50391 v -0.0781 c -0.42969,0 -0.50782,-0.0586 -0.50782,-0.33203 v -3.28125 z"
           style="fill:#000000;fill-opacity:1;fill-rule:nonzero;stroke:none" />
        <path
           id="path4733"
           d="m 494.99364,66.820281 -0.0781,-0.0391 c -0.19531,0.3125 -0.27343,0.37109 -0.5078,0.37109 h -1.3086 l 0.91797,-0.97656 c 0.48828,-0.50781 0.70312,-0.91797 0.70312,-1.34765 0,-0.54688 -0.44921,-0.95704 -1.01562,-0.95704 -0.29297,0 -0.58594,0.11719 -0.78125,0.33204 -0.17578,0.19531 -0.27344,0.37109 -0.35156,0.74218 l 0.11719,0.0391 c 0.21484,-0.54688 0.41015,-0.72266 0.78125,-0.72266 0.46875,0 0.78125,0.3125 0.78125,0.78125 0,0.42969 -0.25391,0.9375 -0.72266,1.42578 l -0.97656,1.03516 v 0.0586 h 2.14844 z"
           style="fill:#000000;fill-opacity:1;fill-rule:nonzero;stroke:none" />
        <path
           id="path4735"
           d="m 483.75829,83.299781 c 0,-4.04786 -3.27637,-7.32422 -7.31933,-7.32422 -4.04786,0 -7.32422,3.27636 -7.32422,7.32422 0,4.04296 3.27636,7.31933 7.32422,7.31933 4.04296,0 7.31933,-3.27637 7.31933,-7.31933 z"
           style="fill:none;stroke:#ff0000;stroke-width:0.68230379;stroke-linecap:butt;stroke-linejoin:miter;stroke-miterlimit:10;stroke-opacity:1" />
        <path
           id="path4737"
           d="m 473.74364,83.119111 h 1.67969 c 0.58594,0 0.80078,0.27344 0.70313,0.91797 l -0.0977,0.44922 c -0.0391,0.3125 -0.0391,0.625 0.0195,0.83984 h 0.78125 l 0.0391,-0.15625 c -0.21484,-0.17578 -0.23437,-0.35156 -0.13672,-1.03515 0.13672,-0.83985 0.0391,-1.09375 -0.46875,-1.34766 0.625,-0.27344 0.89844,-0.625 0.9961,-1.21094 0.15625,-0.89843 -0.3125,-1.36718 -1.32813,-1.36718 h -2.36328 l -0.85937,5.11718 h 0.66406 z m 0.0977,-0.58594 0.29296,-1.75781 h 1.58204 c 0.37109,0 0.5664,0.0586 0.70312,0.19531 0.15625,0.15625 0.19531,0.39063 0.15625,0.6836 -0.0977,0.60547 -0.46875,0.8789 -1.15234,0.8789 z"
           style="fill:#000000;fill-opacity:1;fill-rule:nonzero;stroke:none" />
        <path
           id="path4739"
           d="m 479.28563,78.744111 -0.97656,0.48828 v 0.0781 c 0.0586,-0.0195 0.13672,-0.0391 0.15625,-0.0586 0.0977,-0.0391 0.17578,-0.0586 0.23438,-0.0586 0.11718,0 0.17578,0.0781 0.17578,0.25391 v 2.48047 c 0,0.17578 -0.0586,0.3125 -0.13672,0.35156 -0.0781,0.0586 -0.15625,0.0781 -0.39063,0.0781 v 0.0781 h 1.50391 v -0.0781 c -0.42969,0 -0.50781,-0.0586 -0.50781,-0.33204 v -3.28125 z"
           style="fill:#000000;fill-opacity:1;fill-rule:nonzero;stroke:none" />
        <path
           id="path4741"
           d="m 478.54345,85.951141 c 0.3125,0 0.44922,0 0.58593,0.0586 0.33204,0.11719 0.54688,0.42969 0.54688,0.80078 0,0.46875 -0.3125,0.82031 -0.72266,0.82031 -0.13672,0 -0.2539,-0.0391 -0.44922,-0.17578 -0.17578,-0.0977 -0.27343,-0.13672 -0.35156,-0.13672 -0.13672,0 -0.21484,0.0781 -0.21484,0.19532 0,0.19531 0.23437,0.3125 0.625,0.3125 0.41015,0 0.83984,-0.13672 1.11328,-0.3711 0.25391,-0.21484 0.39062,-0.54687 0.39062,-0.89843 0,-0.29297 -0.0977,-0.54688 -0.2539,-0.70313 -0.0977,-0.13672 -0.21485,-0.19531 -0.44922,-0.29297 0.37109,-0.2539 0.50781,-0.46875 0.50781,-0.76172 0,-0.44922 -0.33203,-0.74218 -0.83984,-0.74218 -0.27344,0 -0.52735,0.0781 -0.72266,0.2539 -0.15625,0.15625 -0.23437,0.29297 -0.35156,0.625 l 0.0781,0.0195 c 0.21485,-0.39063 0.46875,-0.56641 0.82032,-0.56641 0.35156,0 0.58593,0.23438 0.58593,0.56641 0,0.21484 -0.0781,0.41016 -0.21484,0.54687 -0.15625,0.15625 -0.3125,0.23438 -0.68359,0.3711 z"
           style="fill:#000000;fill-opacity:1;fill-rule:nonzero;stroke:none" />
        <path
           id="path4743"
           d="m 483.78759,108.29489 c 0,-4.0625 -3.29102,-7.35351 -7.34863,-7.35351 -4.0625,0 -7.35352,3.29101 -7.35352,7.35351 0,4.05762 3.29102,7.35352 7.35352,7.35352 4.05761,0 7.34863,-3.2959 7.34863,-7.35352 z"
           style="fill:none;stroke:#11994f;stroke-width:0.68230379;stroke-linecap:butt;stroke-linejoin:miter;stroke-miterlimit:10;stroke-opacity:1" />
        <path
           id="path4745"
           d="m 477.41063,107.78708 h -2.1289 l -0.0977,0.58594 h 1.5625 l -0.0195,0.13672 c -0.15625,0.91797 -0.9375,1.58203 -1.875,1.58203 -0.52735,0 -0.95703,-0.19531 -1.21094,-0.52735 -0.27344,-0.37109 -0.37109,-0.97656 -0.27344,-1.60156 0.21485,-1.26953 1.07422,-2.08984 2.14844,-2.08984 0.78125,0 1.28906,0.39062 1.30859,1.05469 h 0.66407 c 0,-1.03516 -0.6836,-1.64063 -1.875,-1.64063 -0.625,0 -1.15235,0.17578 -1.60157,0.48828 -0.68359,0.50781 -1.15234,1.28906 -1.30859,2.20703 -0.25391,1.58203 0.52734,2.67578 1.91406,2.67578 0.6836,0 1.28907,-0.2539 1.875,-0.80078 l 0.0586,0.66407 h 0.41016 z"
           style="fill:#000000;fill-opacity:1;fill-rule:nonzero;stroke:none" />
        <path
           id="path4747"
           d="m 479.36864,103.77341 -0.97656,0.48828 v 0.0781 c 0.0586,-0.0195 0.13672,-0.0391 0.15625,-0.0586 0.0977,-0.0391 0.17578,-0.0586 0.23438,-0.0586 0.11718,0 0.17578,0.0781 0.17578,0.25391 v 2.48046 c 0,0.17579 -0.0586,0.3125 -0.13672,0.35157 -0.0781,0.0586 -0.15625,0.0781 -0.39063,0.0781 v 0.0781 h 1.50391 v -0.0781 c -0.42969,0 -0.50781,-0.0586 -0.50781,-0.33203 v -3.28125 z"
           style="fill:#000000;fill-opacity:1;fill-rule:nonzero;stroke:none" />
        <path
           id="path4749"
           d="m 479.36864,109.09079 -0.97656,0.48828 v 0.0781 c 0.0586,-0.0195 0.13672,-0.0391 0.15625,-0.0586 0.0977,-0.0391 0.17578,-0.0586 0.23438,-0.0586 0.11718,0 0.17578,0.0781 0.17578,0.25391 v 2.48047 c 0,0.17578 -0.0586,0.3125 -0.13672,0.35156 -0.0781,0.0586 -0.15625,0.0781 -0.39063,0.0781 v 0.0781 h 1.50391 v -0.0781 c -0.42969,0 -0.50781,-0.0586 -0.50781,-0.33203 v -3.28125 z"
           style="fill:#000000;fill-opacity:1;fill-rule:nonzero;stroke:none" />
        <path
           id="path4751"
           d="m 498.47998,128.5195 c 0,-4.0625 -3.29103,-7.35351 -7.34864,-7.35351 -4.0625,0 -7.35352,3.29101 -7.35352,7.35351 0,4.05762 3.29102,7.34863 7.35352,7.34863 4.05761,0 7.34864,-3.29101 7.34864,-7.34863 z"
           style="fill:none;stroke:#11994f;stroke-width:0.68230379;stroke-linecap:butt;stroke-linejoin:miter;stroke-miterlimit:10;stroke-opacity:1" />
        <path
           id="path4753"
           d="m 492.10302,128.00681 h -2.12891 l -0.0977,0.58593 h 1.5625 l -0.0195,0.13672 c -0.15625,0.91797 -0.9375,1.58203 -1.875,1.58203 -0.52734,0 -0.95703,-0.19531 -1.21094,-0.52734 -0.27343,-0.37109 -0.37109,-0.97656 -0.27343,-1.60156 0.21484,-1.26953 1.07422,-2.08985 2.14843,-2.08985 0.78125,0 1.28907,0.39063 1.3086,1.05469 h 0.66406 c 0,-1.03515 -0.68359,-1.64062 -1.875,-1.64062 -0.625,0 -1.15234,0.17578 -1.60156,0.48828 -0.6836,0.50781 -1.15235,1.28906 -1.3086,2.20703 -0.2539,1.58203 0.52735,2.67578 1.91407,2.67578 0.68359,0 1.28906,-0.25391 1.875,-0.80078 l 0.0586,0.66406 h 0.41016 z"
           style="fill:#000000;fill-opacity:1;fill-rule:nonzero;stroke:none" />
        <path
           id="path4755"
           d="m 495.07665,126.94724 -0.0781,-0.0391 c -0.19532,0.3125 -0.27344,0.3711 -0.50782,0.3711 h -1.30859 l 0.91797,-0.97656 c 0.48827,-0.50782 0.70312,-0.91797 0.70312,-1.34766 0,-0.54688 -0.44922,-0.95703 -1.01562,-0.95703 -0.29297,0 -0.58594,0.11719 -0.78125,0.33203 -0.17578,0.19531 -0.27344,0.37109 -0.35156,0.74219 l 0.11718,0.0391 c 0.21485,-0.54688 0.41016,-0.72266 0.78125,-0.72266 0.46875,0 0.78125,0.3125 0.78125,0.78125 0,0.42969 -0.2539,0.9375 -0.72265,1.42578 l -0.97657,1.03516 v 0.0586 h 2.14844 z"
           style="fill:#000000;fill-opacity:1;fill-rule:nonzero;stroke:none" />
        <path
           id="path4757"
           d="m 494.06103,129.31052 -0.97657,0.48828 v 0.0781 c 0.0586,-0.0195 0.13672,-0.0391 0.15625,-0.0586 0.0977,-0.0391 0.17578,-0.0586 0.23438,-0.0586 0.11719,0 0.17578,0.0781 0.17578,0.25391 v 2.48046 c 0,0.17579 -0.0586,0.3125 -0.13672,0.35157 -0.0781,0.0586 -0.15625,0.0781 -0.39062,0.0781 v 0.0781 h 1.5039 v -0.0781 c -0.42969,0 -0.50781,-0.0586 -0.50781,-0.33203 v -3.28125 z"
           style="fill:#000000;fill-opacity:1;fill-rule:nonzero;stroke:none" />
        <path
           id="path4759"
           d="m 522.25439,136.23923 c 0,-4.05762 -3.29103,-7.34863 -7.35353,-7.34863 -4.05761,0 -7.34862,3.29101 -7.34862,7.34863 0,4.0625 3.29101,7.35351 7.34862,7.35351 4.0625,0 7.35353,-3.29101 7.35353,-7.35351 z"
           style="fill:none;stroke:#11994f;stroke-width:0.68230379;stroke-linecap:butt;stroke-linejoin:miter;stroke-miterlimit:10;stroke-opacity:1" />
        <path
           id="path4761"
           d="m 515.87743,135.73142 h -2.1289 l -0.0976,0.58593 h 1.5625 l -0.0195,0.13672 c -0.15625,0.91797 -0.9375,1.58203 -1.875,1.58203 -0.52735,0 -0.95704,-0.19531 -1.21094,-0.52734 -0.27343,-0.37109 -0.3711,-0.97656 -0.27343,-1.60156 0.21483,-1.26953 1.07421,-2.08985 2.14843,-2.08985 0.78125,0 1.28907,0.39063 1.30859,1.05469 h 0.66406 c 0,-1.03516 -0.68358,-1.64062 -1.875,-1.64062 -0.625,0 -1.15233,0.17578 -1.60156,0.48828 -0.68359,0.50781 -1.15234,1.28906 -1.30859,2.20703 -0.25391,1.58203 0.52734,2.67578 1.91407,2.67578 0.68358,0 1.28906,-0.25391 1.875,-0.80078 l 0.0586,0.66406 h 0.41016 z"
           style="fill:#000000;fill-opacity:1;fill-rule:nonzero;stroke:none" />
        <path
           id="path4763"
           d="m 517.83544,131.72263 -0.97656,0.48828 v 0.0781 c 0.0586,-0.0195 0.13672,-0.0391 0.15625,-0.0586 0.0976,-0.0391 0.17578,-0.0586 0.23437,-0.0586 0.11713,0 0.17579,0.0781 0.17579,0.2539 v 2.48047 c 0,0.17578 -0.0586,0.3125 -0.13673,0.35157 -0.0781,0.0586 -0.15625,0.0781 -0.39062,0.0781 v 0.0781 h 1.50391 v -0.0781 c -0.42969,0 -0.50781,-0.0586 -0.50781,-0.33203 v -3.28125 z"
           style="fill:#000000;fill-opacity:1;fill-rule:nonzero;stroke:none" />
        <path
           id="path4765"
           d="m 518.85106,139.98435 -0.0781,-0.0391 c -0.19531,0.3125 -0.27344,0.3711 -0.50781,0.3711 h -1.30859 l 0.91796,-0.97657 c 0.48829,-0.50781 0.70313,-0.91796 0.70313,-1.34765 0,-0.54688 -0.44922,-0.95703 -1.01563,-0.95703 -0.29296,0 -0.58594,0.11718 -0.78125,0.33203 -0.17577,0.19531 -0.27344,0.37109 -0.35156,0.74219 l 0.11712,0.0391 c 0.21485,-0.54688 0.41017,-0.72266 0.78125,-0.72266 0.46875,0 0.78125,0.3125 0.78125,0.78125 0,0.42969 -0.2539,0.9375 -0.72265,1.42578 l -0.97656,1.03516 v 0.0586 h 2.14844 z"
           style="fill:#000000;fill-opacity:1;fill-rule:nonzero;stroke:none" />
        <path
           id="path4767"
           d="m 546.02391,128.5195 c 0,-4.0625 -3.29101,-7.35351 -7.34863,-7.35351 -4.0625,0 -7.35352,3.29101 -7.35352,7.35351 0,4.05762 3.29102,7.34863 7.35352,7.34863 4.05762,0 7.34863,-3.29101 7.34863,-7.34863 z"
           style="fill:none;stroke:#11994f;stroke-width:0.68230379;stroke-linecap:butt;stroke-linejoin:miter;stroke-miterlimit:10;stroke-opacity:1" />
        <path
           id="path4769"
           d="m 539.65184,128.00681 h -2.1289 l -0.0976,0.58593 h 1.5625 l -0.0195,0.13672 c -0.15625,0.91797 -0.9375,1.58203 -1.875,1.58203 -0.52735,0 -0.95703,-0.19531 -1.21093,-0.52734 -0.27344,-0.37109 -0.3711,-0.97656 -0.27344,-1.60156 0.21484,-1.26953 1.07421,-2.08985 2.14844,-2.08985 0.78125,0 1.28906,0.39063 1.30858,1.05469 h 0.66407 c 0,-1.03515 -0.68359,-1.64062 -1.875,-1.64062 -0.625,0 -1.15234,0.17578 -1.60157,0.48828 -0.68358,0.50781 -1.15233,1.28906 -1.30858,2.20703 -0.25392,1.58203 0.52733,2.67578 1.91406,2.67578 0.68359,0 1.28906,-0.25391 1.875,-0.80078 l 0.0586,0.66406 h 0.41017 z"
           style="fill:#000000;fill-opacity:1;fill-rule:nonzero;stroke:none" />
        <path
           id="path4771"
           d="m 542.62059,126.94724 -0.0781,-0.0391 c -0.19531,0.3125 -0.27343,0.3711 -0.50781,0.3711 h -1.30859 l 0.91797,-0.97656 c 0.48828,-0.50782 0.70312,-0.91797 0.70312,-1.34766 0,-0.54688 -0.44921,-0.95703 -1.01562,-0.95703 -0.29297,0 -0.58594,0.11719 -0.78125,0.33203 -0.17578,0.19531 -0.27344,0.37109 -0.35157,0.74219 l 0.11713,0.0391 c 0.21485,-0.54688 0.41016,-0.72266 0.78125,-0.72266 0.46875,0 0.78125,0.3125 0.78125,0.78125 0,0.42969 -0.2539,0.9375 -0.72265,1.42578 l -0.97656,1.03516 v 0.0586 h 2.14843 z"
           style="fill:#000000;fill-opacity:1;fill-rule:nonzero;stroke:none" />
        <path
           id="path4773"
           d="m 542.62059,132.25974 -0.0781,-0.0391 c -0.19531,0.3125 -0.27343,0.3711 -0.50781,0.3711 h -1.30859 l 0.91797,-0.97656 c 0.48828,-0.50782 0.70312,-0.91797 0.70312,-1.34766 0,-0.54688 -0.44921,-0.95703 -1.01562,-0.95703 -0.29297,0 -0.58594,0.11719 -0.78125,0.33203 -0.17578,0.19531 -0.27344,0.37109 -0.35157,0.74219 l 0.11713,0.0391 c 0.21485,-0.54688 0.41016,-0.72266 0.78125,-0.72266 0.46875,0 0.78125,0.3125 0.78125,0.78125 0,0.42969 -0.2539,0.9375 -0.72265,1.42578 l -0.97656,1.03516 v 0.0586 h 2.14843 z"
           style="fill:#000000;fill-opacity:1;fill-rule:nonzero;stroke:none" />
        <path
           id="path4775"
           d="m 560.4868,108.29489 c 0,-3.93066 -3.18847,-7.11914 -7.11914,-7.11914 -3.93066,0 -7.11426,3.18848 -7.11426,7.11914 0,3.93067 3.1836,7.11426 7.11426,7.11426 3.93067,0 7.11914,-3.18359 7.11914,-7.11426 z"
           style="fill:none;stroke:#0000ff;stroke-width:0.68230379;stroke-linecap:butt;stroke-linejoin:miter;stroke-miterlimit:10;stroke-opacity:1" />
        <path
           id="path4777"
           d="m 549.73974,110.35544 h 2.32421 c 0.48829,0 0.85938,-0.13672 1.19141,-0.42969 0.29297,-0.27344 0.48828,-0.625 0.5664,-1.03515 0.0976,-0.625 -0.11712,-0.9961 -0.74218,-1.25 0.50781,-0.21485 0.82031,-0.58594 0.91797,-1.11329 0.0586,-0.37109 -0.039,-0.70312 -0.25391,-0.9375 -0.23438,-0.2539 -0.5664,-0.35156 -1.05469,-0.35156 h -2.08984 z m 1.15234,-2.91016 0.27343,-1.64062 h 1.26954 c 0.35156,0 0.54688,0.0586 0.70313,0.17578 0.15625,0.15625 0.21483,0.35156 0.17577,0.64453 -0.039,0.27344 -0.17577,0.48828 -0.37109,0.625 -0.21485,0.13672 -0.42968,0.19531 -0.78125,0.19531 z m -0.39063,2.32422 0.29298,-1.75781 h 1.60156 c 0.3125,0 0.50781,0.0781 0.64452,0.25391 0.11713,0.15625 0.17579,0.39062 0.11713,0.625 -0.039,0.2539 -0.15625,0.48828 -0.33203,0.64453 -0.19531,0.17578 -0.41016,0.23437 -0.72266,0.23437 z"
           style="fill:#000000;fill-opacity:1;fill-rule:nonzero;stroke:none" />
        <path
           id="path4779"
           d="m 556.01903,103.77341 -0.97657,0.48828 v 0.0781 c 0.0586,-0.0195 0.13673,-0.0391 0.15625,-0.0586 0.0976,-0.0391 0.17579,-0.0586 0.23438,-0.0586 0.11712,0 0.17579,0.0781 0.17579,0.25391 v 2.48046 c 0,0.17579 -0.0586,0.3125 -0.13673,0.35157 -0.0781,0.0586 -0.15625,0.0781 -0.39062,0.0781 v 0.0781 h 1.50391 v -0.0781 c -0.42969,0 -0.50781,-0.0586 -0.50781,-0.33203 v -3.28125 z"
           style="fill:#000000;fill-opacity:1;fill-rule:nonzero;stroke:none" />
        <path
           id="path4781"
           d="m 556.01903,109.09079 -0.97657,0.48828 v 0.0781 c 0.0586,-0.0195 0.13673,-0.0391 0.15625,-0.0586 0.0976,-0.0391 0.17579,-0.0586 0.23438,-0.0586 0.11712,0 0.17579,0.0781 0.17579,0.25391 v 2.48047 c 0,0.17578 -0.0586,0.3125 -0.13673,0.35156 -0.0781,0.0586 -0.15625,0.0781 -0.39062,0.0781 v 0.0781 h 1.50391 v -0.0781 c -0.42969,0 -0.50781,-0.0586 -0.50781,-0.33203 v -3.28125 z"
           style="fill:#000000;fill-opacity:1;fill-rule:nonzero;stroke:none" />
        <path
           id="path4783"
           d="m 560.4868,83.299781 c 0,-3.93067 -3.18847,-7.11915 -7.11914,-7.11915 -3.93066,0 -7.11426,3.18848 -7.11426,7.11915 0,3.93066 3.1836,7.11425 7.11426,7.11425 3.93067,0 7.11914,-3.18359 7.11914,-7.11425 z"
           style="fill:none;stroke:#0000ff;stroke-width:0.68230379;stroke-linecap:butt;stroke-linejoin:miter;stroke-miterlimit:10;stroke-opacity:1" />
        <path
           id="path4785"
           d="m 549.73974,85.360321 h 2.32421 c 0.48829,0 0.85938,-0.13672 1.19141,-0.42969 0.29297,-0.27343 0.48828,-0.625 0.5664,-1.03515 0.0976,-0.625 -0.11712,-0.9961 -0.74218,-1.25 0.50781,-0.21485 0.82031,-0.58594 0.91797,-1.11328 0.0586,-0.3711 -0.039,-0.70313 -0.25391,-0.9375 -0.23438,-0.25391 -0.5664,-0.35157 -1.05469,-0.35157 h -2.08984 z m 1.15234,-2.91015 0.27343,-1.64063 h 1.26954 c 0.35156,0 0.54688,0.0586 0.70313,0.17578 0.15625,0.15625 0.21483,0.35156 0.17577,0.64453 -0.039,0.27344 -0.17577,0.48828 -0.37109,0.625 -0.21485,0.13672 -0.42968,0.19532 -0.78125,0.19532 z m -0.39063,2.32421 0.29298,-1.75781 h 1.60156 c 0.3125,0 0.50781,0.0781 0.64452,0.25391 0.11713,0.15625 0.17579,0.39062 0.11713,0.625 -0.039,0.2539 -0.15625,0.48828 -0.33203,0.64453 -0.19531,0.17578 -0.41016,0.23437 -0.72266,0.23437 z"
           style="fill:#000000;fill-opacity:1;fill-rule:nonzero;stroke:none" />
        <path
           id="path4787"
           d="m 557.03465,81.727511 -0.0781,-0.0391 c -0.19532,0.3125 -0.27344,0.37109 -0.50782,0.37109 h -1.30858 l 0.91796,-0.97656 c 0.48829,-0.50781 0.70312,-0.91797 0.70312,-1.34766 0,-0.54687 -0.44921,-0.95703 -1.01562,-0.95703 -0.29296,0 -0.58594,0.11719 -0.78125,0.33203 -0.17578,0.19531 -0.27344,0.3711 -0.35156,0.74219 l 0.11712,0.0391 c 0.21485,-0.54687 0.41016,-0.72265 0.78125,-0.72265 0.46875,0 0.78125,0.3125 0.78125,0.78125 0,0.42968 -0.2539,0.9375 -0.72265,1.42578 l -0.97656,1.03515 v 0.0586 h 2.14844 z"
           style="fill:#000000;fill-opacity:1;fill-rule:nonzero;stroke:none" />
        <path
           id="path4789"
           d="m 556.01903,84.095671 -0.97657,0.48829 v 0.0781 c 0.0586,-0.0195 0.13673,-0.0391 0.15625,-0.0586 0.0976,-0.0391 0.17579,-0.0586 0.23438,-0.0586 0.11712,0 0.17579,0.0781 0.17579,0.2539 v 2.48047 c 0,0.17578 -0.0586,0.3125 -0.13673,0.35156 -0.0781,0.0586 -0.15625,0.0781 -0.39062,0.0781 v 0.0781 h 1.50391 v -0.0781 c -0.42969,0 -0.50781,-0.0586 -0.50781,-0.33203 v -3.28125 z"
           style="fill:#000000;fill-opacity:1;fill-rule:nonzero;stroke:none" />
        <path
           id="path4791"
           d="m 545.84325,63.075171 c 0,-3.95508 -3.20801,-7.16797 -7.16797,-7.16797 -3.95995,0 -7.16797,3.21289 -7.16797,7.16797 0,3.95996 3.20802,7.16796 7.16797,7.16796 3.95996,0 7.16797,-3.208 7.16797,-7.16796 z"
           style="fill:none;stroke:#0000ff;stroke-width:0.68230379;stroke-linecap:butt;stroke-linejoin:miter;stroke-miterlimit:10;stroke-opacity:1" />
        <path
           id="path4793"
           d="m 535.04735,65.101531 h 2.32423 c 0.48827,0 0.85937,-0.13672 1.1914,-0.42968 0.29297,-0.27344 0.48828,-0.625 0.56641,-1.03516 0.0976,-0.625 -0.11713,-0.99609 -0.74219,-1.25 0.50781,-0.21484 0.82031,-0.58594 0.91796,-1.11328 0.0586,-0.3711 -0.039,-0.70313 -0.2539,-0.9375 -0.23437,-0.25391 -0.56641,-0.35156 -1.05468,-0.35156 h -2.08985 z m 1.15235,-2.91015 0.27344,-1.64063 h 1.26952 c 0.35157,0 0.54688,0.0586 0.70313,0.17578 0.15625,0.15625 0.21485,0.35157 0.17579,0.64453 -0.039,0.27344 -0.17579,0.48829 -0.3711,0.625 -0.21484,0.13672 -0.42969,0.19532 -0.78125,0.19532 z m -0.39062,2.32422 0.29296,-1.75782 h 1.60156 c 0.3125,0 0.50781,0.0781 0.64454,0.25391 0.11712,0.15625 0.17577,0.39062 0.11712,0.625 -0.039,0.25391 -0.15625,0.48828 -0.33203,0.64453 -0.19532,0.17578 -0.41015,0.23438 -0.72265,0.23438 z"
           style="fill:#000000;fill-opacity:1;fill-rule:nonzero;stroke:none" />
        <path
           id="path4795"
           d="m 540.58446,60.414031 c 0.3125,0 0.44922,0 0.58594,0.0586 0.33203,0.11719 0.54688,0.42969 0.54688,0.80078 0,0.46875 -0.3125,0.82031 -0.72267,0.82031 -0.13671,0 -0.2539,-0.0391 -0.44921,-0.17578 -0.17579,-0.0977 -0.27344,-0.13672 -0.35156,-0.13672 -0.13673,0 -0.21485,0.0781 -0.21485,0.19532 0,0.19531 0.23437,0.3125 0.625,0.3125 0.41016,0 0.83985,-0.13672 1.11329,-0.3711 0.2539,-0.21484 0.39062,-0.54687 0.39062,-0.89843 0,-0.29297 -0.0976,-0.54688 -0.25391,-0.70313 -0.0976,-0.13672 -0.21484,-0.19531 -0.44921,-0.29297 0.37108,-0.2539 0.50781,-0.46875 0.50781,-0.76172 0,-0.44922 -0.33204,-0.74218 -0.83985,-0.74218 -0.27344,0 -0.52734,0.0781 -0.72265,0.2539 -0.15625,0.15625 -0.23438,0.29297 -0.35156,0.625 l 0.0781,0.0195 c 0.21484,-0.39062 0.46875,-0.5664 0.82031,-0.5664 0.35157,0 0.58594,0.23437 0.58594,0.5664 0,0.21485 -0.0781,0.41016 -0.21485,0.54688 -0.15625,0.15625 -0.3125,0.23437 -0.68359,0.37109 z"
           style="fill:#000000;fill-opacity:1;fill-rule:nonzero;stroke:none" />
        <path
           id="path4797"
           d="m 541.32665,63.910131 -0.97656,0.48828 v 0.0781 c 0.0586,-0.0195 0.13671,-0.0391 0.15625,-0.0586 0.0976,-0.0391 0.17577,-0.0586 0.23437,-0.0586 0.11713,0 0.17578,0.0781 0.17578,0.2539 v 2.48047 c 0,0.17578 -0.0586,0.3125 -0.13671,0.35157 -0.0781,0.0586 -0.15625,0.0781 -0.39063,0.0781 v 0.0781 h 1.5039 v -0.0781 c -0.42969,0 -0.50781,-0.0586 -0.50781,-0.33203 v -3.28125 z"
           style="fill:#000000;fill-opacity:1;fill-rule:nonzero;stroke:none" />
        <path
           id="path4799"
           d="m 531.42919,60.721651 -9.17969,-2.9834"
           style="fill:none;stroke:#000000;stroke-width:0.68230379;stroke-linecap:butt;stroke-linejoin:miter;stroke-miterlimit:10;stroke-opacity:1" />
        <path
           id="path4801"
           d="M 546.16551,80.960911 498.47509,65.462861"
           style="fill:none;stroke:#000000;stroke-width:0.68230379;stroke-linecap:butt;stroke-linejoin:miter;stroke-miterlimit:10;stroke-opacity:1" />
        <path
           id="path4803"
           d="M 546.16551,105.95603 483.83153,85.702121"
           style="fill:none;stroke:#000000;stroke-width:0.68230379;stroke-linecap:butt;stroke-linejoin:miter;stroke-miterlimit:10;stroke-opacity:1" />
        <path
           id="path4805"
           d="M 531.2534,126.10251 483.86083,110.707"
           style="fill:none;stroke:#000000;stroke-width:0.68230379;stroke-linecap:butt;stroke-linejoin:miter;stroke-miterlimit:10;stroke-opacity:1" />
        <path
           id="path4807"
           d="m 507.47899,133.82712 -8.92578,-2.90039"
           style="fill:none;stroke:#000000;stroke-width:0.68230379;stroke-linecap:butt;stroke-linejoin:miter;stroke-miterlimit:10;stroke-opacity:1" />
      </g>
      <text
         xml:space="preserve"
         style="font-style:normal;font-variant:normal;font-weight:normal;font-stretch:normal;font-size:45px;line-height:125%;font-family:'Segoe UI';-inkscape-font-specification:'Segoe UI, Normal';text-align:start;letter-spacing:0px;word-spacing:0px;writing-mode:lr-tb;text-anchor:start;fill:#000000;fill-opacity:1;stroke:none;stroke-width:1px;stroke-linecap:butt;stroke-linejoin:miter;stroke-opacity:1"
         x="25.021536"
         y="106.37875"
         id="text6651"><tspan
           id="tspan6657"
           x="25.021536"
           y="106.37875">PM</tspan><tspan
           id="tspan6659"
           x="25.021536"
           y="162.62875">Architectures</tspan><tspan
           id="tspan6661"
           x="25.021536"
           y="218.87875">Project</tspan></text>
      <path
         style="fill:none;fill-rule:evenodd;stroke:#000000;stroke-width:6.28477764;stroke-linecap:butt;stroke-linejoin:miter;stroke-miterlimit:4;stroke-dasharray:none;stroke-opacity:1;marker-end:url(#TriangleOutS)"
         d="m 287.95901,84.45723 25.75957,13.1251"
         id="path6663" />
      <path
         style="fill:none;fill-rule:evenodd;stroke:#000000;stroke-width:6.28477764;stroke-linecap:butt;stroke-linejoin:miter;stroke-miterlimit:4;stroke-dasharray:none;stroke-opacity:1;marker-end:url(#TriangleOutS-5)"
         d="m 320.15282,194.85086 -25.75957,13.1251"
         id="path6663-6" />
    </g>
  </g>
</svg>
